<svg width="32" height="32" viewBox="0 0 32 32" fill="none" xmlns="http://www.w3.org/2000/svg">
<path d="M27.0499 25.8151H4.94995C4.68473 25.8151 4.43038 25.7097 4.24284 25.5222C4.05531 25.3346 3.94995 25.0803 3.94995 24.8151V10.185C3.94995 9.91983 4.05531 9.66548 4.24284 9.47794C4.43038 9.29041 4.68473 9.18505 4.94995 9.18505H8.71995C8.79296 9.18383 8.86481 9.16663 8.93046 9.13467C8.99611 9.10271 9.05396 9.05676 9.09995 9.00005L11.15 6.52505C11.2438 6.41528 11.3604 6.32716 11.4916 6.26674C11.6228 6.20632 11.7655 6.17504 11.91 6.17505H20C20.1435 6.17576 20.2853 6.20739 20.4156 6.26778C20.5459 6.32818 20.6616 6.41592 20.7549 6.52505L22.7999 9.00005C22.8469 9.05493 22.9052 9.09899 22.9708 9.1292C23.0364 9.15941 23.1077 9.17505 23.18 9.17505H27.0499C27.3152 9.17505 27.5695 9.28041 27.7571 9.46794C27.9446 9.65548 28.0499 9.90983 28.0499 10.175V24.8151C28.0499 25.0803 27.9446 25.3346 27.7571 25.5222C27.5695 25.7097 27.3152 25.8151 27.0499 25.8151Z" stroke="black" stroke-width="1.5"/>
<path d="M21.25 15.605C21.3467 16.0078 21.3954 16.4207 21.395 16.835C21.3936 17.8821 21.0838 18.9057 20.5043 19.7778C19.9248 20.65 19.1012 21.3321 18.1364 21.739C17.1715 22.146 16.1082 22.2597 15.0791 22.066C14.0501 21.8723 13.1008 21.3798 12.35 20.65" stroke="black" stroke-width="1.5" stroke-linecap="round"/>
<path d="M10.86 17.97C10.6156 16.8534 10.7369 15.6877 11.2062 14.6454C11.6754 13.6031 12.4676 12.7395 13.4656 12.1821C14.4636 11.6248 15.6144 11.4035 16.748 11.5507C17.8815 11.698 18.9375 12.2062 19.76 13" stroke="black" stroke-width="1.5" stroke-linecap="round"/>
<path d="M17.365 13.65L19.83 13.05L19.64 10.74" stroke="black" stroke-width="1.5" stroke-linecap="round"/>
<path d="M14.805 20.2051L12.22 20.5501L12.415 22.8651" stroke="black" stroke-width="1.5" stroke-linecap="round"/>
</svg>
