<svg width="67" height="67" viewBox="0 0 67 67" fill="none" xmlns="http://www.w3.org/2000/svg">
<path d="M34.2035 51.6625C35.9704 51.5417 37.7224 51.2595 39.4379 50.8194C41.5566 51.4563 43.7929 51.6005 45.976 51.241C46.0631 51.2303 46.1506 51.2238 46.2384 51.2214C47.0173 51.2214 48.039 51.6681 49.5298 52.6089V51.0623C49.5304 50.7929 49.6032 50.5285 49.7407 50.2968C49.8782 50.065 50.0753 49.8744 50.3114 49.7446C50.9609 49.378 51.5612 48.9658 52.112 48.5079C54.284 46.6933 55.5095 44.2702 55.5095 41.7074C55.5095 40.8616 55.3755 40.0185 55.1103 39.2145C55.7691 38.0029 56.294 36.7383 56.6848 35.4206C57.941 37.2771 58.6166 39.4685 58.625 41.7074C58.625 45.1914 56.9835 48.4409 54.1388 50.8166C53.6623 51.2131 53.1645 51.5778 52.6453 51.911V55.5346C52.6453 56.7796 51.188 57.4971 50.1607 56.7545C49.1873 56.0383 48.1812 55.3675 47.1457 54.7445C46.8465 54.572 46.537 54.4182 46.2188 54.2839C45.3546 54.4118 44.4822 54.4762 43.6086 54.4765C40.0632 54.4765 36.7858 53.4241 34.2035 51.6625ZM15.4407 44.4181C10.9629 40.6689 8.375 35.5574 8.375 30.0801C8.375 18.8911 19.0727 9.94385 32.1349 9.94385C45.1999 9.94385 55.9003 18.8883 55.9003 30.0801C55.9003 41.2691 45.1999 50.2136 32.1349 50.2136C30.6665 50.2136 29.2194 50.102 27.7938 49.8786C27.1797 50.021 24.7174 51.4643 21.172 54.0187C19.8878 54.9455 18.0677 54.0522 18.0677 52.4916V46.3137C17.1482 45.7452 16.2711 45.1108 15.4435 44.4153M27.8804 46.068C27.9883 46.068 28.0972 46.0764 28.207 46.0931C29.4912 46.3053 30.8005 46.4123 32.1349 46.4142C43.1703 46.4142 52.0004 39.0302 52.0004 30.0773C52.0004 21.1273 43.1703 13.7433 32.1377 13.7433C21.105 13.7433 12.2694 21.1328 12.2694 30.0801C12.2694 34.4072 14.3352 38.4831 17.9811 41.5343C18.9005 42.3011 19.9018 42.9897 20.985 43.6002C21.2788 43.7632 21.5241 44.0014 21.6957 44.2903C21.8674 44.5792 21.9593 44.9084 21.962 45.2445V48.8066C24.7677 46.9502 26.613 46.068 27.8804 46.068Z" fill="white"/>
<path d="M22.5063 33.5C23.3393 33.5 24.1381 33.1691 24.7271 32.5801C25.3161 31.9912 25.647 31.1923 25.647 30.3594C25.647 29.5264 25.3161 28.7276 24.7271 28.1386C24.1381 27.5496 23.3393 27.2188 22.5063 27.2188C21.6734 27.2188 20.8746 27.5496 20.2856 28.1386C19.6966 28.7276 19.3657 29.5264 19.3657 30.3594C19.3657 31.1923 19.6966 31.9912 20.2856 32.5801C20.8746 33.1691 21.6734 33.5 22.5063 33.5ZM32.7155 33.5C33.5484 33.5 34.3472 33.1691 34.9362 32.5801C35.5252 31.9912 35.8561 31.1923 35.8561 30.3594C35.8561 29.5264 35.5252 28.7276 34.9362 28.1386C34.3472 27.5496 33.5484 27.2188 32.7155 27.2188C31.8825 27.2188 31.0837 27.5496 30.4947 28.1386C29.9057 28.7276 29.5748 29.5264 29.5748 30.3594C29.5748 31.1923 29.9057 31.9912 30.4947 32.5801C31.0837 33.1691 31.8825 33.5 32.7155 33.5ZM42.9218 33.5C43.7547 33.5 44.5536 33.1691 45.1426 32.5801C45.7315 31.9912 46.0624 31.1923 46.0624 30.3594C46.0624 29.5264 45.7315 28.7276 45.1426 28.1386C44.5536 27.5496 43.7547 27.2188 42.9218 27.2188C42.0889 27.2188 41.29 27.5496 40.701 28.1386C40.1121 28.7276 39.7812 29.5264 39.7812 30.3594C39.7812 31.1923 40.1121 31.9912 40.701 32.5801C41.29 33.1691 42.0889 33.5 42.9218 33.5Z" fill="white"/>
</svg>
