<svg width="28" height="28" viewBox="0 0 28 28" fill="none" xmlns="http://www.w3.org/2000/svg">
<path fill-rule="evenodd" clip-rule="evenodd" d="M24.6417 3.15818C23.2748 1.79135 21.0588 1.79134 19.692 3.15818L17.7322 5.11795L8.50853 14.3416C8.35901 14.4911 8.25295 14.6785 8.20167 14.8836L7.035 19.5503C6.9356 19.9479 7.05209 20.3684 7.34187 20.6581C7.63164 20.9479 8.05222 21.0645 8.44979 20.9651L13.1164 19.7984C13.3216 19.7471 13.5089 19.641 13.6584 19.4915L22.815 10.335L24.8419 8.3081C26.2087 6.94126 26.2087 4.72518 24.8419 3.35835L24.6417 3.15818ZM21.3419 4.8081C21.7975 4.35249 22.5362 4.35249 22.9918 4.8081L23.192 5.00826C23.6476 5.46388 23.6476 6.20258 23.192 6.65818L22.0061 7.84412L20.1914 5.95857L21.3419 4.8081ZM18.5412 7.60878L20.3558 9.49434L12.2371 17.6131L9.77026 18.2298L10.3869 15.763L18.5412 7.60878ZM4.66683 9.33322C4.66683 8.6889 5.18917 8.16656 5.8335 8.16656H11.6668C12.3112 8.16656 12.8335 7.64423 12.8335 6.99989C12.8335 6.35556 12.3112 5.83322 11.6668 5.83322H5.8335C3.9005 5.83322 2.3335 7.40023 2.3335 9.33322V22.1665C2.3335 24.0996 3.9005 25.6665 5.8335 25.6665H18.6668C20.5999 25.6665 22.1668 24.0996 22.1668 22.1665V16.3332C22.1668 15.6889 21.6445 15.1665 21.0002 15.1665C20.3558 15.1665 19.8335 15.6889 19.8335 16.3332V22.1665C19.8335 22.8109 19.3112 23.3332 18.6668 23.3332H5.8335C5.18917 23.3332 4.66683 22.8109 4.66683 22.1665V9.33322Z" fill="white"/>
</svg>
