<svg width="47" height="47" viewBox="0 0 47 47" fill="none" xmlns="http://www.w3.org/2000/svg">
<g clip-path="url(#clip0_44_3620)">
<path d="M29.1283 0.0917982L9 24.9688H20.75L17.8575 40.8707C17.852 40.9019 17.8534 40.934 17.8616 40.9645C17.8698 40.9951 17.8846 41.0236 17.905 41.0478C17.9254 41.0721 17.9509 41.0915 17.9796 41.1049C18.0084 41.1182 18.0397 41.1251 18.0714 41.125C18.1051 41.125 18.1383 41.1171 18.1684 41.1019C18.1986 41.0868 18.2247 41.0648 18.2449 41.0378L38.375 16.1563H26.625L29.5313 0.252443C29.5352 0.220758 29.5323 0.188605 29.5228 0.15812C29.5134 0.127635 29.4975 0.0995172 29.4763 0.0756372C29.4551 0.0517571 29.4291 0.0326615 29.4 0.0196204C29.3708 0.00657918 29.3392 -0.000108624 29.3073 1.33422e-06C29.2723 0.000140082 29.2379 0.00852587 29.2068 0.0244766C29.1757 0.0404274 29.1488 0.0634929 29.1283 0.0917982Z" stroke="white" stroke-width="2.5" stroke-linecap="round" stroke-linejoin="round"/>
</g>
<defs>
<clipPath id="clip0_44_3620">
<rect width="47" height="47" fill="white"/>
</clipPath>
</defs>
</svg>
