<svg width="800" height="800" viewBox="0 0 800 800" fill="none" xmlns="http://www.w3.org/2000/svg">
<path d="M675 700C671.717 700.005 668.464 699.361 665.431 698.103C662.398 696.845 659.644 694.999 657.328 692.672L107.328 142.672C102.838 137.945 100.371 131.652 100.455 125.133C100.538 118.614 103.165 112.385 107.775 107.775C112.385 103.165 118.613 100.538 125.133 100.455C131.652 100.371 137.945 102.838 142.672 107.328L692.672 657.328C696.166 660.824 698.545 665.278 699.509 670.126C700.472 674.974 699.977 679.999 698.086 684.566C696.195 689.132 692.992 693.036 688.883 695.783C684.774 698.53 679.943 699.998 675 700Z" fill="white"/>
<path d="M674.219 318.75C672.833 313.381 669.701 308.626 665.317 305.232C660.933 301.838 655.545 299.997 650 300H479.984L524.063 58.7968C524.141 58.3281 524.219 57.875 524.266 57.4062C525.061 51.1518 523.785 44.809 520.631 39.3494C517.478 33.8899 512.622 29.6147 506.806 27.1787C500.991 24.7427 494.538 24.2802 488.435 25.8622C482.332 27.4442 476.915 30.9833 473.016 35.9375L328.359 214.781C327.388 215.984 326.896 217.504 326.98 219.048C327.063 220.592 327.716 222.05 328.813 223.141L564.75 459.078C565.369 459.698 566.112 460.181 566.93 460.496C567.748 460.81 568.623 460.949 569.499 460.904C570.374 460.858 571.23 460.629 572.011 460.231C572.792 459.833 573.48 459.275 574.031 458.594L669.031 341.156C671.585 338.086 673.385 334.46 674.285 330.569C675.186 326.678 675.163 322.63 674.219 318.75Z" fill="white"/>
<path d="M471.203 576.859L235.266 340.922C234.647 340.304 233.905 339.823 233.088 339.51C232.272 339.197 231.398 339.059 230.525 339.105C229.652 339.151 228.798 339.379 228.018 339.775C227.239 340.172 226.551 340.727 226 341.406L130.938 458.812C128.384 461.889 126.588 465.522 125.692 469.418C124.797 473.315 124.827 477.367 125.781 481.25C127.167 486.618 130.299 491.374 134.683 494.768C139.067 498.162 144.455 500.003 150 500H320.047L276.156 741.187V741.359C275.073 747.644 276.114 754.111 279.115 759.739C282.115 765.367 286.905 769.835 292.727 772.438C298.55 775.041 305.073 775.631 311.268 774.114C317.463 772.597 322.976 769.061 326.938 764.062L471.641 585.219C472.615 584.018 473.109 582.499 473.028 580.955C472.947 579.411 472.297 577.952 471.203 576.859Z" fill="white"/>
</svg>
