<svg width="67" height="67" viewBox="0 0 67 67" fill="none" xmlns="http://www.w3.org/2000/svg">
<g clip-path="url(#clip0_245_1256)">
<path d="M61.6624 29.7343C61.3949 28.4812 60.7186 27.3527 59.7397 26.5259C58.7609 25.6992 57.535 25.2212 56.2549 25.1671C56.2549 25.1671 45.225 25.1671 44.555 25.1252C46.7058 22.6712 47.9321 19.5431 48.0223 16.2812C48.0223 10.1563 46.8498 6.63044 44.4378 5.50261C43.5973 5.18883 42.6871 5.1101 41.8051 5.27488C40.9232 5.43965 40.1029 5.84171 39.4323 6.43782L38.9326 6.85657V7.50423C38.7224 10.99 37.5915 14.3577 35.6552 17.2639C33.8658 20.1765 31.5003 22.6929 28.704 24.659L22.2217 33.5002H19.5417V27.9169H5.58337V64.2086H19.5417V58.6252H24.5555L31.451 61.322L50.7805 61.4169C51.9415 61.4641 53.0925 61.1839 54.1019 60.6084C55.1114 60.0328 55.9387 59.185 56.4894 58.1618C56.7951 57.5478 56.9685 56.8764 56.9983 56.1911C57.0281 55.5059 56.9137 54.822 56.6625 54.1837C57.3839 53.791 58.017 53.2543 58.5227 52.607C59.0283 51.9597 59.3957 51.2155 59.6021 50.4205C59.8119 49.6156 59.8553 48.7763 59.7295 47.954C59.6038 47.1318 59.3115 46.3438 58.8707 45.6384C59.5475 45.1616 60.1235 44.5559 60.5657 43.856C61.0078 43.1561 61.3075 42.3757 61.4474 41.5598C61.5724 40.7381 61.5266 39.8996 61.3128 39.0964C61.0991 38.2933 60.722 37.5429 60.2051 36.8921C61.0341 35.92 61.6029 34.7533 61.8583 33.5015C62.1136 32.2496 62.0472 30.9535 61.6652 29.7343H61.6624ZM16.75 61.4169H8.37504V30.7086H16.75V61.4169ZM57.4274 35.5912L55.8027 36.6046L57.2683 37.8413C57.774 38.2135 58.1717 38.7133 58.4209 39.2896C58.6701 39.866 58.7617 40.4981 58.6865 41.1215C58.5537 41.7689 58.2541 42.3704 57.8173 42.8665C57.3805 43.3625 56.8217 43.7358 56.1963 43.9494L54.1109 44.8009L55.7971 46.2889C56.2856 46.6974 56.6484 47.236 56.8435 47.8422C57.0386 48.4484 57.0582 49.0974 56.8998 49.7142C56.7445 50.309 56.424 50.8478 55.9755 51.2682C55.5269 51.6885 54.9686 51.9735 54.365 52.0899L52.2014 52.5562L53.5554 54.3093C53.8772 54.6554 54.0895 55.0889 54.1655 55.5554C54.2415 56.0218 54.1779 56.5004 53.9825 56.9307C53.6548 57.4796 53.1826 57.928 52.6174 58.2268C52.0522 58.5256 51.4158 58.6635 50.7777 58.6252H32.2243L25.3232 55.9285L19.5417 55.8531V36.2919H23.6538L30.4878 26.8142C33.4922 24.6713 36.0386 21.9502 37.9779 18.8105C40.0707 15.6636 41.345 12.0442 41.6852 8.28032C41.9111 8.12339 42.1696 8.01954 42.4412 7.97652C42.7129 7.9335 42.9908 7.95241 43.2541 8.03186C43.7175 8.24961 45.2306 9.48352 45.2306 16.2812C45.1093 19.0025 44.0192 21.5907 42.157 23.5787C41.7877 23.9649 41.5309 24.4446 41.4143 24.9661C41.2977 25.4876 41.3257 26.0311 41.4954 26.5378C42.1933 27.9169 43.9241 27.9169 46.7884 27.9169H56.2549C57.7177 27.9169 58.6195 29.2569 58.9796 30.5076C59.2924 31.4101 59.3106 32.3887 59.0317 33.3022C58.7527 34.2158 58.191 35.0173 57.4274 35.5912Z" fill="#FF8700"/>
</g>
<rect x="7" y="29" width="11" height="33" fill="#FF8700"/>
<rect x="7" y="29" width="11" height="33" fill="#FF8700"/>
<rect x="19" y="36" width="37" height="21" fill="#FF8700"/>
<rect x="23" y="33" width="37" height="3" fill="#FF8700"/>
<path d="M26 34C26 30.134 29.134 27 33 27H60V34H26V34Z" fill="#FF8700"/>
<rect x="55" y="35" width="3" height="17" fill="#FF8700"/>
<rect x="57" y="38" width="2" height="5" fill="#FF8700"/>
<rect x="26" y="56" width="29" height="3" fill="#FF8700"/>
<rect x="41" y="7" width="5" height="14" fill="#FF8700"/>
<rect x="39" y="12" width="4" height="16" fill="#FF8700"/>
<rect x="42" y="20" width="3" height="3" fill="#FF8700"/>
<rect x="36" y="17" width="5" height="11" fill="#FF8700"/>
<rect x="29" y="25" width="8" height="3" fill="#FF8700"/>
<path d="M32 25C32 22.7909 33.7909 21 36 21V21V25H32V25Z" fill="#FF8700"/>
<g clip-path="url(#clip1_245_1256)">
<path d="M61.6624 29.7343C61.3949 28.4812 60.7186 27.3527 59.7397 26.5259C58.7609 25.6992 57.535 25.2212 56.2549 25.1671C56.2549 25.1671 45.225 25.1671 44.555 25.1252C46.7058 22.6712 47.9321 19.5431 48.0223 16.2812C48.0223 10.1563 46.8498 6.63044 44.4378 5.50261C43.5973 5.18883 42.6871 5.1101 41.8051 5.27488C40.9232 5.43965 40.1029 5.84171 39.4323 6.43782L38.9326 6.85657V7.50423C38.7224 10.99 37.5915 14.3577 35.6552 17.2639C33.8658 20.1765 31.5003 22.6929 28.704 24.659L22.2217 33.5002H19.5417V27.9169H5.58337V64.2086H19.5417V58.6252H24.5555L31.451 61.322L50.7805 61.4169C51.9415 61.4641 53.0925 61.1839 54.1019 60.6084C55.1114 60.0328 55.9387 59.185 56.4894 58.1618C56.7951 57.5478 56.9685 56.8764 56.9983 56.1911C57.0281 55.5059 56.9137 54.822 56.6625 54.1837C57.3839 53.791 58.017 53.2543 58.5227 52.607C59.0283 51.9597 59.3957 51.2155 59.6021 50.4205C59.8119 49.6156 59.8553 48.7763 59.7295 47.954C59.6038 47.1318 59.3115 46.3438 58.8707 45.6384C59.5475 45.1616 60.1235 44.5559 60.5657 43.856C61.0078 43.1561 61.3075 42.3757 61.4474 41.5598C61.5724 40.7381 61.5266 39.8996 61.3128 39.0964C61.0991 38.2933 60.722 37.5429 60.2051 36.8921C61.0341 35.92 61.6029 34.7533 61.8583 33.5015C62.1136 32.2496 62.0472 30.9535 61.6652 29.7343H61.6624ZM16.75 61.4169H8.37504V30.7086H16.75V61.4169ZM57.4274 35.5912L55.8027 36.6046L57.2683 37.8413C57.774 38.2135 58.1717 38.7133 58.4209 39.2896C58.6701 39.866 58.7617 40.4981 58.6865 41.1215C58.5537 41.7689 58.2541 42.3704 57.8173 42.8665C57.3805 43.3625 56.8217 43.7358 56.1963 43.9494L54.1109 44.8009L55.7971 46.2889C56.2856 46.6974 56.6484 47.236 56.8435 47.8422C57.0386 48.4484 57.0582 49.0974 56.8998 49.7142C56.7445 50.309 56.424 50.8478 55.9755 51.2682C55.5269 51.6885 54.9686 51.9735 54.365 52.0899L52.2014 52.5562L53.5554 54.3093C53.8772 54.6554 54.0895 55.0889 54.1655 55.5554C54.2415 56.0218 54.1779 56.5004 53.9825 56.9307C53.6548 57.4796 53.1826 57.928 52.6174 58.2268C52.0522 58.5256 51.4158 58.6635 50.7777 58.6252H32.2243L25.3232 55.9285L19.5417 55.8531V36.2919H23.6538L30.4878 26.8142C33.4922 24.6713 36.0386 21.9502 37.9779 18.8105C40.0707 15.6636 41.345 12.0442 41.6852 8.28032C41.9111 8.12339 42.1696 8.01954 42.4412 7.97652C42.7129 7.9335 42.9908 7.95241 43.2541 8.03186C43.7175 8.24961 45.2306 9.48352 45.2306 16.2812C45.1093 19.0025 44.0192 21.5907 42.157 23.5787C41.7877 23.9649 41.5309 24.4446 41.4143 24.9661C41.2977 25.4876 41.3257 26.0311 41.4954 26.5378C42.1933 27.9169 43.9241 27.9169 46.7884 27.9169H56.2549C57.7177 27.9169 58.6195 29.2569 58.9796 30.5076C59.2924 31.4101 59.3106 32.3887 59.0317 33.3022C58.7527 34.2158 58.191 35.0173 57.4274 35.5912Z" fill="#9F5400"/>
</g>
<defs>
<clipPath id="clip0_245_1256">
<rect width="67" height="67" fill="white"/>
</clipPath>
<clipPath id="clip1_245_1256">
<rect width="67" height="67" fill="white"/>
</clipPath>
</defs>
</svg>
