<svg width="67" height="67" viewBox="0 0 67 67" fill="none" xmlns="http://www.w3.org/2000/svg">
<path d="M65.0757 36.3125C68.4706 32.9329 67.4217 26.0971 61.5436 26.0971L46.0773 26.1083C46.6621 22.8307 47.513 17.4026 47.4784 16.8892C47.1552 12.0348 44.0561 6.1258 43.9253 5.88283C43.3621 4.83245 40.5109 3.40593 37.6426 4.01916C33.9316 4.81273 33.5528 7.17658 33.5684 7.82864C33.5684 7.82864 33.7311 14.3002 33.7465 16.0244C31.9752 19.9191 25.8614 30.1518 24.0051 30.9403C23.5629 30.6712 23.0553 30.5288 22.5377 30.5286H2.99395C1.34031 30.5286 0 31.8687 0 33.5221L0.00243989 60.5284C0.118131 61.9855 1.35414 63.1271 2.81685 63.1271H20.3629C21.9188 63.1271 23.1851 61.8612 23.1851 60.3056V59.4095C23.1851 59.4095 23.8377 59.3648 24.1321 59.5515C25.2606 60.2682 26.6568 61.1701 28.4747 61.1701H54.6694C64.4568 61.1701 63.4067 52.4801 62.5143 51.2914C64.1677 49.4885 65.1912 46.314 63.7944 43.8026C64.8759 42.6676 66.7656 39.5448 65.0757 36.3125Z" fill="#37393D"/>
<path d="M61.1006 28.9309H42.6331C43.3459 26.1013 44.6612 17.0822 44.6612 17.0822C44.363 12.704 41.4347 7.2102 41.4347 7.2102C37.9544 5.74545 36.39 7.7547 36.39 7.7547C36.39 7.7547 36.5708 14.7122 36.5708 16.3197C36.5708 17.9274 28.6181 30.7808 26.6752 32.4364C25.6455 33.3142 23.7969 34.5205 22.2915 35.4578V56.2016L23.4976 56.2028C24.8861 56.2028 26.592 58.3481 28.475 58.3481L55.1153 58.3365C60.4695 58.3365 61.322 52.3055 57.7887 51.7264L57.9462 51.0605C61.334 50.696 63.3947 45.3388 59.07 44.2398L59.2288 43.5717C62.4621 43.2313 64.8637 38.0319 60.3513 36.7497L60.5101 36.0826C64.758 35.4123 65.6237 28.9317 61.1006 28.9309Z" fill="#FF8437"/>
<path d="M60.3516 36.7497L60.5104 36.0826C64.758 35.4125 65.6238 28.9319 61.1006 28.9309H52.1794C56.7035 28.9317 55.8376 35.4125 51.5899 36.0826L51.5214 36.4787C56.034 37.7607 53.5412 43.2313 50.308 43.5717L50.2395 43.969C54.5648 45.0677 52.4128 50.6959 49.0254 51.0605L48.9585 51.4552C52.4925 52.034 51.5483 58.3365 46.1939 58.3365L28.4211 58.3438C28.4392 58.3444 28.4573 58.3481 28.4748 58.3481L55.1152 58.3365C60.4693 58.3365 61.3218 52.3055 57.7885 51.7264L57.9461 51.0605C61.3338 50.6959 63.3945 45.3388 59.0698 44.2398L59.2286 43.5717C62.4625 43.2313 64.864 38.0317 60.3516 36.7497Z" fill="#FF8437"/>
<path d="M2.81689 33.3511H20.4038V60.3043H2.81689V33.3511Z" fill="#FF8437"/>
<path d="M2.81689 33.3511V60.3043H20.4038V33.3511H2.81689ZM19.2711 59.1734H3.9488V36.8352L19.2711 36.8098V59.1734Z" fill="#FF8437"/>
<path opacity="0.5" d="M24.9481 56.7369V33.7285C24.9091 33.7556 22.4849 35.3374 22.2915 35.4574V56.2011L23.4976 56.2023C23.9492 56.2023 24.4337 56.4311 24.9481 56.7369Z" fill="#D0D1D0"/>
<path d="M38.9587 6.67603H38.9575C38.9701 6.72645 41.131 14.7354 41.131 15.8868C41.131 17.0391 34.5732 26.8155 35.451 28.0529C36.6469 29.7377 42.6328 28.9307 42.6328 28.9307C43.3456 26.101 44.661 17.082 44.661 17.082C44.3627 12.7038 41.4344 7.20996 41.4344 7.20996C41.3179 7.16075 40.3171 6.67521 38.9587 6.67603Z" fill="#FF8437"/>
</svg>
