<svg width="67" height="67" viewBox="0 0 67 67" fill="none" xmlns="http://www.w3.org/2000/svg">
<g clip-path="url(#clip0_44_3372)">
<path d="M61.6623 29.734C61.3948 28.481 60.7184 27.3524 59.7396 26.5257C58.7608 25.6989 57.5349 25.221 56.2548 25.1669C56.2548 25.1669 45.2249 25.1669 44.5549 25.125C46.7056 22.6709 47.932 19.5429 48.0222 16.281C48.0222 10.1561 46.8497 6.6302 44.4377 5.50236C43.5971 5.18859 42.687 5.10985 41.805 5.27463C40.9231 5.43941 40.1027 5.84147 39.4322 6.43757L38.9325 6.85632V7.50399C38.7223 10.9898 37.5914 14.3575 35.6551 17.2637C33.8656 20.1762 31.5002 22.6927 28.7038 24.6588L22.2216 33.5H19.5416V27.9167H5.58325V64.2083H19.5416V58.625H24.5554L31.4508 61.3217L50.7803 61.4167C51.9414 61.4639 53.0923 61.1837 54.1018 60.6081C55.1112 60.0326 55.9386 59.1848 56.4893 58.1616C56.795 57.5475 56.9684 56.8762 56.9982 56.1909C57.028 55.5056 56.9136 54.8217 56.6624 54.1834C57.3838 53.7907 58.0169 53.2541 58.5225 52.6068C59.0282 51.9595 59.3956 51.2153 59.602 50.4203C59.8118 49.6153 59.8552 48.7761 59.7294 47.9538C59.6037 47.1315 59.3114 46.3436 58.8706 45.6382C59.5474 45.1614 60.1234 44.5556 60.5655 43.8557C61.0077 43.1558 61.3074 42.3755 61.4473 41.5595C61.5723 40.7379 61.5264 39.8993 61.3127 39.0962C61.0989 38.2931 60.7219 37.5427 60.205 36.8919C61.034 35.9197 61.6028 34.7531 61.8582 33.5012C62.1135 32.2494 62.0471 30.9532 61.665 29.734H61.6623ZM16.7499 61.4167H8.37492V30.7083H16.7499V61.4167ZM57.4273 35.5909L55.8025 36.6043L57.2682 37.841C57.7738 38.2132 58.1716 38.7131 58.4208 39.2894C58.6699 39.8657 58.7616 40.4979 58.6863 41.1212C58.5535 41.7687 58.2539 42.3702 57.8172 42.8662C57.3804 43.3622 56.8216 43.7356 56.1962 43.9492L54.1108 44.8007L55.797 46.2886C56.2854 46.6972 56.6482 47.2357 56.8434 47.8419C57.0385 48.4481 57.058 49.0972 56.8997 49.714C56.7443 50.3088 56.4239 50.8475 55.9753 51.2679C55.5268 51.6883 54.9685 51.9732 54.3648 52.0897L52.2013 52.5559L53.5553 54.3091C53.8771 54.6551 54.0894 55.0887 54.1654 55.5551C54.2414 56.0216 54.1777 56.5001 53.9824 56.9304C53.6547 57.4794 53.1824 57.9277 52.6173 58.2265C52.0521 58.5254 51.4157 58.6632 50.7775 58.625H32.2241L25.3231 55.9282L19.5416 55.8529V36.2917H23.6537L30.4877 26.8139C33.4921 24.671 36.0385 21.95 37.9778 18.8102C40.0705 15.6634 41.3448 12.0439 41.6851 8.28007C41.911 8.12315 42.1694 8.0193 42.4411 7.97628C42.7128 7.93325 42.9907 7.95217 43.254 8.03161C43.7174 8.24936 45.2305 9.48328 45.2305 16.281C45.1092 19.0022 44.0191 21.5904 42.1569 23.5784C41.7876 23.9646 41.5308 24.4444 41.4142 24.9659C41.2976 25.4874 41.3256 26.0308 41.4953 26.5376C42.1932 27.9167 43.924 27.9167 46.7883 27.9167H56.2548C57.7176 27.9167 58.6193 29.2567 58.9795 30.5073C59.2923 31.4099 59.3105 32.3884 59.0316 33.302C58.7526 34.2156 58.1909 35.017 57.4273 35.5909Z" fill="white"/>
</g>
<defs>
<clipPath id="clip0_44_3372">
<rect width="67" height="67" fill="white"/>
</clipPath>
</defs>
</svg>
