<svg width="23" height="23" viewBox="0 0 23 23" fill="none" xmlns="http://www.w3.org/2000/svg">
<path d="M21.6647 11.4936C22.4507 11.6053 22.9973 12.3331 22.8856 13.1191C22.5437 15.5225 21.4501 17.7563 19.7613 19.5002C18.0724 21.2441 15.875 22.4089 13.4837 22.8276C11.0925 23.2464 8.63002 22.8976 6.44907 21.8313C5.42419 21.3303 4.48618 20.6829 3.6616 19.9147L2.45397 21.1223C1.54839 22.0279 0 21.3865 0 20.1059V14.375H5.73092C7.01159 14.375 7.65296 15.9233 6.74738 16.8289L5.69624 17.88C6.29634 18.426 6.97407 18.8879 7.71183 19.2485C9.34754 20.0482 11.1944 20.3097 12.9878 19.9958C14.7812 19.6817 16.4293 18.8081 17.6959 17.5001C18.9626 16.1921 19.7829 14.517 20.0392 12.7143C20.151 11.9283 20.8788 11.3818 21.6647 11.4936ZM16.5509 1.16865C17.5776 1.67059 18.517 2.31939 19.3427 3.08926L20.546 1.8859C21.4517 0.980318 23 1.62169 23 2.90237V8.62501H17.2773C15.9966 8.62501 15.3552 7.07662 16.2609 6.17105L17.3081 5.12384C16.7069 4.57622 16.0277 4.11304 15.2882 3.75148C13.6525 2.95179 11.8056 2.69022 10.0122 3.00429C8.21872 3.31834 6.57065 4.1919 5.30403 5.49986C4.03739 6.80779 3.21715 8.48304 2.9608 10.2856C2.84902 11.0716 2.12123 11.6182 1.33523 11.5064C0.549233 11.3947 0.00266778 10.6669 0.114446 9.88085C0.456248 7.47738 1.54988 5.24374 3.23873 3.49981C4.92758 1.75588 7.125 0.591124 9.51626 0.172379C11.9075 -0.246364 14.37 0.102376 16.5509 1.16865Z" fill="white"/>
</svg>
