<svg width="800" height="800" viewBox="0 0 800 800" fill="none" xmlns="http://www.w3.org/2000/svg">
<path fill-rule="evenodd" clip-rule="evenodd" d="M333.333 166.667C333.333 111.438 288.562 66.6665 233.333 66.6665H166.667C111.438 66.6665 66.6666 111.438 66.6666 166.667V633.333C66.6666 688.563 111.438 733.333 166.667 733.333H233.333C288.562 733.333 333.333 688.563 333.333 633.333V166.667ZM266.667 166.667C266.667 148.257 251.743 133.333 233.333 133.333H166.667C148.257 133.333 133.333 148.257 133.333 166.667V633.333C133.333 651.743 148.257 666.666 166.667 666.666H233.333C251.743 666.666 266.667 651.743 266.667 633.333V166.667Z" fill="white"/>
<path fill-rule="evenodd" clip-rule="evenodd" d="M733.333 166.667C733.333 111.438 688.563 66.6665 633.333 66.6665H566.667C511.437 66.6665 466.667 111.438 466.667 166.667V633.333C466.667 688.563 511.437 733.333 566.667 733.333H633.333C688.563 733.333 733.333 688.563 733.333 633.333V166.667ZM666.667 166.667C666.667 148.257 651.743 133.333 633.333 133.333H566.667C548.257 133.333 533.333 148.257 533.333 166.667V633.333C533.333 651.743 548.257 666.666 566.667 666.666H633.333C651.743 666.666 666.667 651.743 666.667 633.333V166.667Z" fill="white"/>
</svg>
