<svg width="29" height="33" viewBox="0 0 29 33" fill="none" xmlns="http://www.w3.org/2000/svg">
<path d="M22.4869 11.8096C25.0171 13.365 26.282 14.1426 26.7158 15.1384C27.0947 16.0078 27.0947 16.9922 26.7158 17.8618C26.282 18.8574 25.0171 19.635 22.4869 21.1905L10.6037 28.4957C7.79565 30.222 6.39161 31.0852 5.23295 30.9934C4.223 30.9135 3.2972 30.409 2.69308 29.6089C2 28.691 2 27.0625 2 23.8053V9.19478C2 5.93767 2 4.30913 2.69308 3.39125C3.2972 2.59117 4.223 2.08648 5.23295 2.0066C6.39161 1.91499 7.79565 2.77813 10.6037 4.50439L22.4869 11.8096Z" stroke="white" stroke-width="4" stroke-linejoin="round"/>
</svg>
