<svg width="22" height="22" viewBox="0 0 22 22" fill="none" xmlns="http://www.w3.org/2000/svg">
<path d="M14.75 7.73987V19.0999C14.75 20.5499 13.71 21.1599 12.44 20.4599L8.51001 18.2699C8.09001 18.0399 7.40999 18.0399 6.98999 18.2699L3.06 20.4599C1.79 21.1599 0.75 20.5499 0.75 19.0999V7.73987C0.75 6.02987 2.14999 4.62988 3.85999 4.62988H11.64C13.35 4.62988 14.75 6.02987 14.75 7.73987Z" stroke="white" stroke-width="1.5" stroke-linecap="round" stroke-linejoin="round"/>
<path d="M20.75 3.85999V15.22C20.75 16.67 19.71 17.28 18.44 16.58L14.75 14.52V7.73999C14.75 6.02999 13.35 4.63 11.64 4.63H6.75V3.85999C6.75 2.14999 8.14999 0.75 9.86 0.75H17.64C19.35 0.75 20.75 2.14999 20.75 3.85999Z" stroke="white" stroke-width="1.5" stroke-linecap="round" stroke-linejoin="round"/>
<path d="M5.75 10.75H9.75" stroke="white" stroke-width="1.5" stroke-linecap="round" stroke-linejoin="round"/>
<path d="M7.75 12.75V8.75" stroke="white" stroke-width="1.5" stroke-linecap="round" stroke-linejoin="round"/>
</svg>
