<svg width="21" height="22" viewBox="0 0 21 22" fill="none" xmlns="http://www.w3.org/2000/svg">
<path d="M10.1782 13.75C11.8351 13.75 13.1782 12.4069 13.1782 10.75C13.1782 9.09315 11.8351 7.75 10.1782 7.75C8.52137 7.75 7.17822 9.09315 7.17822 10.75C7.17822 12.4069 8.52137 13.75 10.1782 13.75Z" stroke="black" stroke-width="1.5"/>
<path d="M11.9436 0.90224C11.576 0.75 11.1101 0.75 10.1782 0.75C9.24632 0.75 8.78042 0.75 8.41282 0.90224C7.92279 1.10523 7.53344 1.49458 7.33045 1.98463C7.23779 2.20834 7.20152 2.4685 7.18733 2.84799C7.16648 3.40568 6.88048 3.92189 6.39716 4.20093C5.91386 4.47996 5.32381 4.46954 4.83041 4.20876C4.49467 4.0313 4.25123 3.93262 4.01116 3.90102C3.48526 3.83178 2.9534 3.97429 2.53258 4.2972C2.21696 4.53938 1.98399 4.9429 1.51805 5.74993C1.05211 6.55697 0.81914 6.96048 0.76721 7.35491C0.69798 7.8808 0.84049 8.41266 1.1634 8.8335C1.31078 9.0256 1.51792 9.187 1.83941 9.389C2.31202 9.686 2.61611 10.1919 2.61608 10.75C2.61605 11.3081 2.31197 11.8139 1.8394 12.1108C1.51787 12.3129 1.3107 12.4744 1.1633 12.6665C0.84039 13.0873 0.69788 13.6191 0.76712 14.145C0.81904 14.5394 1.05201 14.943 1.51795 15.75C1.9839 16.557 2.21687 16.9606 2.53248 17.2027C2.9533 17.5256 3.48516 17.6681 4.01106 17.5989C4.25111 17.5673 4.49454 17.4686 4.83026 17.2912C5.32369 17.0304 5.91378 17.02 6.39712 17.299C6.88046 17.5781 7.16648 18.0943 7.18733 18.6521C7.20153 19.0315 7.23779 19.2917 7.33045 19.5154C7.53344 20.0054 7.92279 20.3948 8.41282 20.5978C8.78042 20.75 9.24632 20.75 10.1782 20.75C11.1101 20.75 11.576 20.75 11.9436 20.5978C12.4336 20.3948 12.823 20.0054 13.0259 19.5154C13.1186 19.2917 13.1549 19.0315 13.1691 18.652C13.1899 18.0943 13.4759 17.5781 13.9592 17.299C14.4425 17.0199 15.0326 17.0304 15.5261 17.2912C15.8618 17.4686 16.1052 17.5672 16.3452 17.5988C16.8711 17.6681 17.403 17.5256 17.8238 17.2027C18.1394 16.9605 18.3724 16.557 18.8383 15.7499C19.3043 14.9429 19.5373 14.5394 19.5892 14.145C19.6584 13.6191 19.5159 13.0872 19.193 12.6664C19.0456 12.4743 18.8384 12.3128 18.5169 12.1108C18.0444 11.8139 17.7403 11.308 17.7403 10.7499C17.7403 10.1918 18.0444 9.6861 18.5169 9.3892C18.8385 9.1871 19.0457 9.0257 19.1931 8.8335C19.516 8.41273 19.6585 7.88087 19.5893 7.35497C19.5374 6.96055 19.3044 6.55703 18.8384 5.75C18.3725 4.94297 18.1395 4.53945 17.8239 4.29727C17.4031 3.97436 16.8712 3.83185 16.3453 3.90109C16.1053 3.93269 15.8619 4.03136 15.5261 4.2088C15.0327 4.46959 14.4426 4.48002 13.9593 4.20096C13.4759 3.92191 13.1899 3.40566 13.1691 2.84794C13.1549 2.46848 13.1186 2.20833 13.0259 1.98463C12.823 1.49458 12.4336 1.10523 11.9436 0.90224Z" stroke="black" stroke-width="1.5"/>
</svg>
