<svg width="26" height="26" viewBox="0 0 26 26" fill="none" xmlns="http://www.w3.org/2000/svg">
<path d="M12.9995 2.03711C13.34 2.03711 13.6653 2.18045 13.895 2.43164L18.228 7.17188C18.6796 7.66607 18.645 8.43296 18.1509 8.88477C17.6566 9.33622 16.8897 9.30169 16.438 8.80762L14.2124 6.37207V17.333C14.2124 18.0026 13.6691 18.5459 12.9995 18.5459C12.33 18.5457 11.7876 18.0025 11.7876 17.333V6.37207L9.56104 8.80762C9.10918 9.30173 8.34234 9.33654 7.84814 8.88477C7.35396 8.43293 7.3202 7.66609 7.77197 7.17188L12.105 2.43164C12.3346 2.18058 12.6592 2.0372 12.9995 2.03711Z" fill="white" stroke="white" stroke-width="0.8"/>
<path d="M4.0625 16.25C4.0625 15.8013 3.69874 15.4375 3.25 15.4375C2.80127 15.4375 2.4375 15.8013 2.4375 16.25V16.3095C2.43748 17.791 2.43746 18.9852 2.56373 19.9244C2.69484 20.8996 2.9753 21.7205 3.62738 22.3726C4.27946 23.0247 5.10049 23.3052 6.0756 23.4363C7.01482 23.5625 8.209 23.5625 9.69056 23.5625H16.3095C17.791 23.5625 18.9852 23.5625 19.9244 23.4363C20.8996 23.3052 21.7205 23.0247 22.3727 22.3726C23.0247 21.7205 23.3052 20.8996 23.4363 19.9244C23.5625 18.9852 23.5625 17.791 23.5625 16.3095V16.25C23.5625 15.8013 23.1987 15.4375 22.75 15.4375C22.3013 15.4375 21.9375 15.8013 21.9375 16.25C21.9375 17.805 21.9358 18.8895 21.8258 19.7079C21.7189 20.5028 21.5234 20.9237 21.2236 21.2236C20.9237 21.5234 20.5028 21.7189 19.7079 21.8258C18.8895 21.9358 17.805 21.9375 16.25 21.9375H9.75C8.19497 21.9375 7.11043 21.9358 6.29213 21.8258C5.49721 21.7189 5.07625 21.5234 4.77643 21.2236C4.4766 20.9237 4.28112 20.5028 4.17425 19.7079C4.06422 18.8895 4.0625 17.805 4.0625 16.25Z" fill="white" stroke="white"/>
</svg>
